<?xml version="1.0" encoding="utf-8"?>
<!-- Generator: Adobe Illustrator 19.2.0, SVG Export Plug-In . SVG Version: 6.00 Build 0)  -->
<svg version="1.1" id="Layer_1" xmlns="http://www.w3.org/2000/svg" xmlns:xlink="http://www.w3.org/1999/xlink" x="0px" y="0px"
	 viewBox="0 0 327.4 219.4" style="enable-background:new 0 0 327.4 219.4;" xml:space="preserve">
<style type="text/css">
	.st0{fill:#8B2A96;}
</style>
<g>
	<path class="st0" d="M12.2,194.5C5.5,194.5,0,200.1,0,207s5.5,12.4,12.2,12.4c5.9,0,10.1-3.3,11.5-8.1h-6.5c-1,1.9-3,2.8-5,2.8
		c-2.9,0-5.2-1.8-5.9-4.7h17.9C25,199.9,19.2,194.5,12.2,194.5z M6.3,204.4c0.9-2.8,3.1-4.5,5.9-4.5c2.9,0,5.2,1.8,5.9,4.5H6.3z"/>
	<path class="st0" d="M54.7,194.5c-3,0-5.5,1.3-7.2,3.4c-1.7-2.1-4.2-3.4-7.1-3.4c-2.6,0-4.7,1.1-6.1,2.9v-2.3h-5.9v23.8h6.1V205
		c0-2.7,1.9-4.7,4.6-4.7c4,0,4.4,3.3,4.4,4.7v13.9h6.1V205c0-2.7,1.9-4.7,4.6-4.7c4,0,4.4,3.3,4.4,4.7v13.9h6.1V205
		C64.8,198.7,61.1,194.5,54.7,194.5z"/>
	<rect x="70.2" y="186.8" class="st0" width="6.1" height="5.7"/>
	<rect x="70.2" y="195.1" class="st0" width="6.1" height="23.8"/>
	<path class="st0" d="M92,203.9c-3-0.5-4.7-0.9-4.7-2.1c0-0.9,1.2-1.9,4-1.9c2.3,0,3.6,0.9,4,2h6.3c-0.8-4.5-4.8-7.4-10.3-7.4
		c-6.9,0-10.1,3.9-10.1,7.6c0,5.3,5.7,6.5,9.9,7.1c4.2,0.6,5,1.2,5,2.5c0,1.4-1.8,2.1-4.3,2.1c-1.8,0-4.2-0.7-5.1-2.8h-6.2
		c0.7,5.1,5.2,8.3,11.3,8.3c6.1,0,10.4-3.3,10.4-8C102.1,206.2,97.9,204.9,92,203.9z"/>
	<rect x="106.4" y="195.1" class="st0" width="6.1" height="23.8"/>
	<rect x="106.4" y="186.8" class="st0" width="6.1" height="5.7"/>
	<path class="st0" d="M135.5,195.1v2.5c-1.8-1.9-4.4-3-7.3-3c-6.2,0-11.3,5.3-11.3,12.4c0,7,5.1,12.4,11.3,12.4c2.9,0,5.4-1.1,7.3-3
		v2.5h5.8v-23.8L135.5,195.1L135.5,195.1z M129.1,213.7c-3.4,0-6.1-2.9-6.1-6.7c0-3.9,2.7-6.8,6.1-6.8c3.4,0,6.1,3,6.1,6.8
		C135.2,210.7,132.5,213.7,129.1,213.7z"/>
</g>
<g>
	<path class="st0" d="M157.3,196.2c4.2,0,7.6,2.4,9.1,6.2h1.8c-1.6-4.8-5.7-7.9-11-7.9c-6.5,0-11.9,5.6-11.9,12.5
		c0,6.8,5.3,12.4,11.9,12.4c5.3,0,9.4-3.1,11-7.9h-1.8c-1.4,3.8-4.8,6.2-9.2,6.2c-5.6,0-10.1-4.8-10.1-10.7S151.7,196.2,157.3,196.2
		z"/>
	<path class="st0" d="M183.4,194.5c-3.7,0-6.6,1.8-8.3,4.7v-4.1h-1.7v23.8h1.7v-14.2c0-4.9,3.5-8.4,8.3-8.4c4.9,0,8.3,3.4,8.3,8.4
		v1.5h1.7v-1.5C193.4,198.7,189.3,194.5,183.4,194.5z"/>
	<path class="st0" d="M208.2,194.5c-6.5,0-11.9,5.6-11.9,12.5s5.3,12.4,12.1,12.4c5.6,0,9.4-2.8,11.1-7.9h-1.8
		c-1.2,3.1-3.7,6.2-9.3,6.2c-5.8,0-10.4-4.6-10.4-10.7h22C220.2,200.9,215.3,194.5,208.2,194.5z M208.2,196.2c5,0,9.2,3.9,10,9h-20
		C199.1,200.1,203.2,196.2,208.2,196.2z"/>
	<path class="st0" d="M244.5,200.9c-1.9-3.8-5.7-6.4-10.1-6.4c-6.5,0-11.9,5.6-11.9,12.5c0,6.8,5.3,12.4,11.9,12.4
		c4.4,0,8.2-2.5,10.1-6.3v5.7h1.7V195h-1.7V200.9z M234.4,217.7c-5.6,0-10.1-4.8-10.1-10.7s4.6-10.8,10.1-10.8
		c5.6,0,10.1,4.8,10.1,10.8C244.5,212.9,240,217.7,234.4,217.7z"/>
	<path class="st0" d="M269.7,209.8c0,4.6-3.3,7.8-7.8,7.8s-7.8-3.3-7.8-7.8v-13.1h16.6V195H254v-5h-1.7v19.8c0,5.5,4,9.5,9.5,9.5
		s9.5-4,9.5-9.5v-2.9h-1.7v2.9H269.7z"/>
	<rect x="277" y="186.8" class="st0" width="1.7" height="4.2"/>
	<rect x="277" y="195.1" class="st0" width="1.7" height="23.8"/>
	<polygon class="st0" points="292.5,216.5 284.3,195.1 282.4,195.1 291.6,218.8 293.4,218.8 302.6,195.1 300.7,195.1 	"/>
	<path class="st0" d="M315.8,217.7c-5.8,0-10.4-4.6-10.4-10.7h22c0.1-6-4.8-12.5-11.9-12.5c-6.5,0-11.9,5.6-11.9,12.5
		s5.3,12.4,12.1,12.4c5.6,0,9.4-2.8,11.1-7.9H325C323.9,214.6,321.4,217.7,315.8,217.7z M315.5,196.2c5,0,9.2,3.9,10,9h-20
		C306.3,200.1,310.5,196.2,315.5,196.2z"/>
</g>
<path class="st0" d="M224.4,152c26.6-12.9,44.9-43.4,44.9-74.3c0-33.2-20.5-66.4-50.4-77.7c23,18.2,37.7,46.4,37.7,78
	c0,29.9-13.2,56.7-34.1,75L224.4,152z"/>
<path class="st0" d="M262,134.2c14.7-12.3,30-33.2,30-56.8c0-25.4-16.8-47.5-33.4-59.4c14.2,13.9,23.3,35.5,23.3,59.6
	c0,22.8-8.1,43.4-21.1,57.3L262,134.2z"/>
<path class="st0" d="M194.7,32.4c-8.4-6.3-19.1-9.4-32-9.4c-11.2,0-21.2,3.4-30,10.2c-8.9,6.8-14.8,15.7-17.9,26.7h98.1
	C209.3,47.8,203.2,38.7,194.7,32.4z"/>
<path class="st0" d="M260.6,93.2H113.3c1.4,13,6.6,23.3,15.5,30.7c8.9,7.5,20.4,11.3,34.6,11.3c9.3,0,17.8-2,25.3-5.9
	c7.5-4,13.4-9.5,17.8-16.6h49C258,106.5,260.1,98.3,260.6,93.2z"/>
<path class="st0" d="M65.2,134.2c-14.7-12.3-30-33.2-30-56.8C35.2,52.1,52,29.9,68.6,18C54.4,32,45.3,53.5,45.3,77.6
	c0,22.8,8.1,43.4,21.1,57.3L65.2,134.2z"/>
<path class="st0" d="M102.8,152c-26.6-12.9-44.9-43.4-44.9-74.3c0-33.2,20.5-66.4,50.4-77.7c-23,18.2-37.7,46.4-37.7,78
	c0,29.9,13.2,56.7,34.1,75L102.8,152z"/>
</svg>
