<?xml version="1.0" encoding="utf-8"?>
<!-- Generator: Adobe Illustrator 19.2.0, SVG Export Plug-In . SVG Version: 6.00 Build 0)  -->
<svg version="1.1" id="Layer_1" xmlns="http://www.w3.org/2000/svg" xmlns:xlink="http://www.w3.org/1999/xlink" x="0px" y="0px"
	 viewBox="0 0 328.8 220.5" style="enable-background:new 0 0 328.8 220.5;" xml:space="preserve">
<style type="text/css">
	.st0{fill-rule:evenodd;clip-rule:evenodd;}
</style>
<g>
	<path class="st0" d="M195.3,32.5c-8.5-6.3-19.2-9.4-32.1-9.4c-11.2,0-21.2,3.4-30.1,10.2c-8.9,6.8-14.9,15.7-18,26.8h98.4
		C209.9,48,203.8,38.8,195.3,32.5z"/>
	<g>
		<path d="M12.2,195.1c-6.7,0-12.2,5.6-12.2,12.5c0,6.9,5.5,12.4,12.2,12.4c5.9,0,10.1-3.3,11.5-8.1h-6.5c-1,1.9-3,2.8-5,2.8
			c-2.9,0-5.2-1.8-6-4.7h18C25.1,200.5,19.2,195.1,12.2,195.1z M6.3,205c0.9-2.8,3.1-4.5,5.9-4.5c2.9,0,5.2,1.8,6,4.5H6.3z"/>
		<path d="M54.9,195.1c-3.1,0-5.6,1.3-7.3,3.4c-1.7-2.1-4.2-3.4-7.1-3.4c-2.6,0-4.7,1.1-6.2,2.9v-2.3h-5.9v23.8h6.2v-13.9
			c0-2.7,1.9-4.7,4.6-4.7c4,0,4.4,3.3,4.4,4.7v13.9h6.2v-13.9c0-2.7,1.9-4.7,4.6-4.7c4,0,4.4,3.3,4.4,4.7v13.9h6.1v-13.9
			C64.9,199.3,61.2,195.1,54.9,195.1z"/>
		<rect x="70.5" y="187.4" width="6.1" height="5.7"/>
		<rect x="70.5" y="195.7" width="6.1" height="23.8"/>
		<path d="M92.2,204.6c-3-0.5-4.7-0.9-4.7-2.1c0-0.9,1.2-1.9,4-1.9c2.3,0,3.6,0.9,4,2h6.3c-0.8-4.5-4.9-7.4-10.3-7.4
			c-6.9,0-10.2,3.9-10.2,7.6c0,5.3,5.7,6.5,9.9,7.1c4.2,0.6,5,1.2,5,2.5c0,1.4-1.9,2.1-4.3,2.1c-1.8,0-4.3-0.7-5.1-2.8h-6.2
			c0.7,5.1,5.2,8.3,11.3,8.3c6.1,0,10.5-3.3,10.5-8C102.4,206.8,98.2,205.5,92.2,204.6z"/>
		<rect x="106.8" y="195.7" width="6.1" height="23.8"/>
		<rect x="106.8" y="187.4" width="6.1" height="5.7"/>
		<path d="M135.9,195.7v2.5c-1.9-1.9-4.4-3.1-7.3-3.1c-6.2,0-11.3,5.4-11.3,12.4c0,7,5.1,12.4,11.3,12.4c2.9,0,5.5-1.1,7.3-3.1v2.5
			h5.8v-23.8H135.9z M129.5,214.4c-3.4,0-6.1-2.9-6.1-6.7c0-3.9,2.7-6.8,6.1-6.8c3.4,0,6.1,3.1,6.1,6.8
			C135.6,211.4,132.9,214.4,129.5,214.4z"/>
	</g>
	<g>
		<path d="M157.7,197.3c4,0,7.2,2.2,8.7,5.9l0.1,0.3h2.8l-0.2-0.6c-1.7-5.1-6.1-8.3-11.5-8.3c-6.8,0-12.4,5.9-12.4,13.1
			c0,7.1,5.5,12.9,12.4,12.9c5.4,0,9.8-3.2,11.5-8.3l0.2-0.6h-2.8l-0.1,0.3c-1.4,3.7-4.7,5.9-8.8,5.9c-5.3,0-9.7-4.6-9.7-10.2
			C148,201.9,152.4,197.3,157.7,197.3z"/>
		<path d="M184,194.6c-3.2,0-6,1.3-7.9,3.6v-3h-2.7V220h2.7v-14.7c0-4.6,3.3-7.9,7.9-7.9c4.7,0,7.8,3.2,7.8,7.9v2h2.7v-2
			C194.4,199,190.1,194.6,184,194.6z"/>
		<path d="M208.9,194.6c-6.8,0-12.4,5.9-12.4,13.1c0,7.2,5.6,12.9,12.6,12.9c5.7,0,9.8-2.9,11.6-8.3l0.2-0.6h-2.8l-0.1,0.3
			c-1.4,3.9-4.4,5.9-8.9,5.9c-5.5,0-9.7-4.2-10-9.8h22l0-0.5c0.1-3.4-1.4-6.8-3.8-9.3C215.1,195.9,212,194.6,208.9,194.6z
			 M199.4,205.4c1-4.7,4.8-8.1,9.4-8.1c4.6,0,8.5,3.4,9.5,8.1H199.4z"/>
		<path d="M244.8,199.7c-2.2-3.2-5.8-5.1-9.7-5.1c-6.8,0-12.4,5.9-12.4,13.1c0,7.1,5.5,12.9,12.4,12.9c3.9,0,7.5-1.9,9.7-5.1v4.5
			h2.7v-24.8h-2.7V199.7z M244.8,207.7c0,5.6-4.4,10.2-9.7,10.2c-5.3,0-9.7-4.6-9.7-10.2c0-5.7,4.4-10.3,9.7-10.3
			C240.4,197.3,244.8,201.9,244.8,207.7z"/>
		<path d="M270,210.5c0,4.3-3,7.4-7.4,7.4c-4.3,0-7.4-3.1-7.4-7.4v-12.6h16.6v-2.7h-16.6v-5.1h-2.7v20.4c0,5.8,4.2,10.1,10.1,10.1
			s10.1-4.2,10.1-10.1v-3.4H270V210.5z"/>
		<rect x="277.3" y="186.9" width="2.7" height="5.2"/>
		<rect x="277.3" y="195.2" width="2.7" height="24.8"/>
		<polygon points="301.3,195.2 293.4,215.8 285.5,195.2 282.6,195.2 292.1,220 294.6,220 304.2,195.2 		"/>
		<path d="M328.8,207.6c0.1-3.4-1.4-6.8-3.8-9.3c-2.3-2.3-5.3-3.6-8.5-3.6c-6.8,0-12.4,5.9-12.4,13.1c0,7.2,5.6,12.9,12.6,12.9
			c5.7,0,9.8-2.9,11.6-8.3l0.2-0.6h-2.8l-0.1,0.3c-1.4,3.9-4.4,5.9-8.9,5.9c-5.5,0-9.7-4.2-10-9.8h22L328.8,207.6z M307,205.4
			c1-4.7,4.8-8.1,9.4-8.1c4.6,0,8.5,3.4,9.5,8.1H307z"/>
	</g>
	<path class="st0" d="M262.7,134.6c14.8-12.4,30.1-33.3,30.1-56.9c0-25.4-16.8-47.7-33.5-59.6c14.3,14,23.4,35.6,23.4,59.8
		c0,22.9-8.2,43.5-21.1,57.5L262.7,134.6z"/>
	<path class="st0" d="M219.6,0c23,18.3,37.8,46.5,37.8,78.2c0,5.2-0.4,10.3-1.2,15.2H113.6c1.4,13,6.6,23.4,15.5,30.8
		c8.9,7.5,20.5,11.3,34.7,11.3c9.4,0,17.9-2,25.4-5.9c7.5-4,13.5-9.5,17.9-16.6h44.1c-5.8,15.7-15.5,29.5-27.9,40.3l1.8-1
		c26.7-13,45.1-43.5,45.1-74.5C270.2,44.7,249.6,11.4,219.6,0z"/>
	<path class="st0" d="M65.4,134.6c-14.8-12.4-30.1-33.3-30.1-56.9c0-25.4,16.8-47.7,33.5-59.6C54.5,32,45.4,53.6,45.4,77.9
		c0,22.9,8.2,43.5,21.1,57.5L65.4,134.6z"/>
	<path class="st0" d="M103.1,152.5c-26.7-13-45.1-43.5-45.1-74.5c0-33.3,20.5-66.6,50.6-78c-23,18.3-37.8,46.5-37.8,78.2
		c0,30,13.2,56.9,34.2,75.2L103.1,152.5z"/>
</g>
</svg>
